# xmcd CD database file
#
# Track frame offsets:
#	150
#	22062
#	36625
#	58918
#	86130
#	104895
#	126054
#	145630
#	169322
#	187556
#	211508
#	234855
#	257270
#	279838
#	303073
#	324402
#
# Disc length: 4580 seconds
#
# Revision: 0
# Processed by: cddbd v1.4PL0 Copyright (c) Steve Scherf et al.
# Submitted via: CDex 1.50
#
DISCID=d311e210
DTITLE=顺子 - 顺子
DYEAR=2000
DGENRE=Blues
TTITLE0=It's Gonna Be Alright
TTITLE1=Dear Friend
TTITLE2=看见Star Blue
TTITLE3=眷恋
TTITLE4=给我
TTITLE5=没有丑女人
TTITLE6=I'm Sorry
TTITLE7=月光
TTITLE8=只要在一起
TTITLE9=And Music's There
TTITLE10=The Greatest Love of All
TTITLE11=回家
TTITLE12=写一首歌
TTITLE13=星星
TTITLE14=真的想你
TTITLE15=If You Leave Me Now
EXTD=YEAR: 2000
EXTT0=
EXTT1=
EXTT2=
EXTT3=
EXTT4=
EXTT5=
EXTT6=
EXTT7=
EXTT8=
EXTT9=
EXTT10=
EXTT11=
EXTT12=
EXTT13=
EXTT14=
EXTT15=
PLAYORDER=
